# xmcd
#
# Track frame offsets: 
#        150
#        16647
#        27270
#        43253
#        58715
#        73290
#        91243
#        106886
#        123428
#        136676
#        150100
#        167823
#        188431
#        215095
#        231518
#        251760
#        267772
#
# Disc length: 3798 seconds
#
# Revision: 0
# Processed by: cddbd v1.5.2PL0 Copyright (c) Steve Scherf et al.
# Submitted via: ExactAudioCopy v0.90b4
#
DISCID=e30ed411
DTITLE=Various Artist - Country Music Messe Berlin 2009
DYEAR=2009
DGENRE=Country
TTITLE0=Barry P. Foley - Radio on trail
TTITLE1=Dietmar Wächtler - Fast twang thang
TTITLE2=Katie Grant - Never thought
TTITLE3=Henry Eye - Swinging doors
TTITLE4=Jolanda Hunter and The Freedom Fries - Busdriver
TTITLE5=Mark Merrit - Take me to the cleaners
TTITLE6=Texas Heat - Story of your life
TTITLE7=Heinrich Doc Wolf - Gimme five, Jhonny Cash
TTITLE8=Ulli Möhring - Ten minutes romance
TTITLE9=Rebound - Honky tonk angels
TTITLE10=Jamestown Ferry - Morning glass of apple vinegar
TTITLE11=Fred Heyden - Back outback
TTITLE12=Sawyer - Wild west show
TTITLE13=Andreas Oscar - Back to Paris
TTITLE14=Daniel T. Coates - Little place in Illinois
TTITLE15=Simple Union - Like an emty bottle of wine
TTITLE16=Sesta Judze - Laiks dzivot (Time to live)
EXTD=
EXTT0=
EXTT1=
EXTT2=
EXTT3=
EXTT4=
EXTT5=
EXTT6=
EXTT7=
EXTT8=
EXTT9=
EXTT10=
EXTT11=
EXTT12=
EXTT13=
EXTT14=
EXTT15=
EXTT16=
PLAYORDER=
